<svg xmlns="http://www.w3.org/2000/svg" width="65" height="56.333" viewBox="0 0 65 56.333"><g transform="translate(0 -32)"><g transform="translate(0 32)"><g transform="translate(0 0)"><path d="M63.917,64.5H62.833V61.25a5.417,5.417,0,0,0-3.25-4.957V39.583a1.083,1.083,0,0,0-.65-.992,4.288,4.288,0,0,0,.65-2.258,4.333,4.333,0,0,0-8.667,0,4.289,4.289,0,0,0,.6,2.167H13.481a4.289,4.289,0,0,0,.6-2.167,4.333,4.333,0,1,0-8.667,0,4.288,4.288,0,0,0,.65,2.258,1.083,1.083,0,0,0-.65.992V56.293a5.417,5.417,0,0,0-3.25,4.957V64.5H1.083A1.083,1.083,0,0,0,0,65.583V80.75a1.083,1.083,0,0,0,1.083,1.083H2.167V87.25A1.083,1.083,0,0,0,3.25,88.333H7.583A1.083,1.083,0,0,0,8.667,87.25V81.833H56.333V87.25a1.083,1.083,0,0,0,1.083,1.083H61.75a1.083,1.083,0,0,0,1.083-1.083V81.833h1.083A1.083,1.083,0,0,0,65,80.75V65.583A1.083,1.083,0,0,0,63.917,64.5ZM55.25,34.167a2.167,2.167,0,1,1-2.167,2.167A2.167,2.167,0,0,1,55.25,34.167Zm-45.5,0a2.167,2.167,0,1,1-2.167,2.167A2.167,2.167,0,0,1,9.75,34.167Zm-2.167,6.5H57.417V55.833H53.055a5.36,5.36,0,0,0,1.112-3.25V50.417A5.423,5.423,0,0,0,48.75,45H40.083a5.423,5.423,0,0,0-5.417,5.417v2.167a5.36,5.36,0,0,0,1.111,3.25H29.222a5.36,5.36,0,0,0,1.111-3.25V50.417A5.423,5.423,0,0,0,24.917,45H16.25a5.423,5.423,0,0,0-5.417,5.417v2.167a5.36,5.36,0,0,0,1.112,3.25H7.583ZM52,50.417v2.167a3.25,3.25,0,0,1-3.25,3.25H40.083a3.25,3.25,0,0,1-3.25-3.25V50.417a3.25,3.25,0,0,1,3.25-3.25H48.75A3.25,3.25,0,0,1,52,50.417Zm-23.833,0v2.167a3.25,3.25,0,0,1-3.25,3.25H16.25A3.25,3.25,0,0,1,13,52.583V50.417a3.25,3.25,0,0,1,3.25-3.25h8.667A3.25,3.25,0,0,1,28.167,50.417ZM4.333,61.25A3.25,3.25,0,0,1,7.583,58H57.417a3.25,3.25,0,0,1,3.25,3.25V64.5H4.333ZM6.5,86.167H4.333V81.833H6.5Zm54.167,0H58.5V81.833h2.167Zm2.167-6.5H2.167v-13H62.833Z" transform="translate(0 -32)"/></g></g><g transform="translate(4.333 75.333)"><path d="M37.417,352H33.083a1.083,1.083,0,1,0,0,2.167h4.333a1.083,1.083,0,1,0,0-2.167Z" transform="translate(-32 -352)"/></g><g transform="translate(13 75.333)"><path d="M142.583,352h-45.5a1.083,1.083,0,1,0,0,2.167h45.5a1.083,1.083,0,1,0,0-2.167Z" transform="translate(-96 -352)"/></g></g></svg>