<svg xmlns="http://www.w3.org/2000/svg" width="54.529" height="54.53" viewBox="0 0 54.529 54.53"><g transform="translate(-0.001)"><path d="M91.036,103.3a.935.935,0,0,0-.935.935v14.185a.935.935,0,0,0,.935.935h28.369a.935.935,0,0,0,.935-.935V104.234a.935.935,0,1,0-1.869,0v13.25h-7.587v-13.25a.935.935,0,0,0-.935-.935h-9.457a.935.935,0,0,0-.935.935v13.25H91.971v-13.25A.935.935,0,0,0,91.036,103.3Zm10.391,1.87h7.587v12.315h-7.587Z" transform="translate(-71.685 -82.186)"/><path d="M62.948,26.809l19.4-19.4,19.4,19.4a.935.935,0,0,0,1.322-1.322l-9.756-9.756V6.089a.935.935,0,1,0-1.869,0v7.773L83.008,5.428a.935.935,0,0,0-1.322,0L61.626,25.487a.935.935,0,1,0,1.322,1.322Z" transform="translate(-48.812 -4.101)"/><path d="M102.407,210.458a.935.935,0,0,0-.935.935v3.888H63.222v-3.888a.935.935,0,1,0-1.87,0v9.645a.935.935,0,1,0,1.87,0v-3.888h38.251v3.888a.935.935,0,1,0,1.869,0v-9.645A.934.934,0,0,0,102.407,210.458Z" transform="translate(-48.812 -167.443)"/><path d="M10.581,1.87a.935.935,0,1,0,0-1.87H.936a.935.935,0,0,0,0,1.87H4.824V40.121H.936a.935.935,0,0,0,0,1.87h9.645a.935.935,0,0,0,0-1.87H6.693V1.87Z"/></g></svg>