<svg xmlns="http://www.w3.org/2000/svg" width="52.094" height="47.82" viewBox="0 0 52.094 47.82"><g transform="translate(0 -21.005)"><path d="M126,85.075a4.07,4.07,0,1,0,4.07-4.07A4.074,4.074,0,0,0,126,85.075Zm6.1,0a2.035,2.035,0,1,1-2.035-2.035A2.037,2.037,0,0,1,132.1,85.075Z" transform="translate(-113.18 -53.895)"/><path d="M66,31.179a10.176,10.176,0,0,0,19.5,4.07h18.754a1.016,1.016,0,0,0,.455-.107l6.1-3.052a1.017,1.017,0,0,0,.264-1.63l-6.1-6.1a1.018,1.018,0,0,0-1.439,0L101.2,26.688l-2.333-2.333a1.018,1.018,0,0,0-1.439,0L95.1,26.688l-2.333-2.333a1.018,1.018,0,0,0-1.439,0L88.573,27.11H85.5A10.176,10.176,0,0,0,66,31.179Zm17.851-2.713a1.017,1.017,0,0,0,.959.678h4.184a1.018,1.018,0,0,0,.719-.3l2.333-2.333,2.333,2.333a1.018,1.018,0,0,0,1.439,0l2.333-2.333,2.333,2.333a1.018,1.018,0,0,0,1.439,0l2.333-2.333,4.387,4.387-4.627,2.314H84.811a1.017,1.017,0,0,0-.959.678,8.14,8.14,0,1,1,0-5.426Z" transform="translate(-59.285)"/><circle cx="1" cy="1" r="1" transform="translate(38.896 59.207)"/><path d="M42.17,281.944l-5.824,3.865a4.09,4.09,0,0,0-3.54-2.075H27.854a2.03,2.03,0,0,1-1.345-.5l-.717-.63a10.2,10.2,0,0,0-13.443,0l-1.541,1.355L8.14,285.849v-.59a1.018,1.018,0,0,0-1.017-1.017h-6.1A1.018,1.018,0,0,0,0,285.26v15.262a1.018,1.018,0,0,0,1.017,1.017h6.1a1.018,1.018,0,0,0,1.017-1.017v-2.544h3.2L28.9,301.519a1.019,1.019,0,0,0,.8-.178l7.1-5.222A1.017,1.017,0,1,0,35.6,294.48l-6.737,4.955-17.218-3.472a1.02,1.02,0,0,0-.2-.02H8.14v-7.6c4.347-3.075,3.6-2.447,5.554-4.206a8.156,8.156,0,0,1,10.754,0l.717.631a4.063,4.063,0,0,0,2.689,1h4.953a2.035,2.035,0,1,1,0,4.07H20.6a1.017,1.017,0,1,0,0,2.035H32.807a4.068,4.068,0,0,0,4.068-3.973l6.418-4.259a5.075,5.075,0,0,1,6.3.545l-6.62,4.87a1.017,1.017,0,0,0,1.206,1.639l7.5-5.52a1.018,1.018,0,0,0,.226-1.409A7.106,7.106,0,0,0,42.17,281.944ZM6.1,299.5H2.035V286.277H6.1Z" transform="translate(0 -232.714)"/></g></svg>